<svg xmlns="http://www.w3.org/2000/svg" viewBox="0 0 960 400" font-family="system-ui, -apple-system, 'Segoe UI', Roboto, Helvetica, Arial, sans-serif" role="img" aria-label="A Deployment owns two ReplicaSets during a rolling update; the old one scales down as the new one scales up, one Pod at a time">
  <defs>
    <marker id="a" viewBox="0 0 10 10" refX="9" refY="5" markerWidth="7" markerHeight="7" orient="auto-start-reverse">
      <path d="M0 0L10 5L0 10z" fill="#4a7fa5"/>
    </marker>
  </defs>

  <rect x="10" y="10" width="470" height="380" rx="14" fill="#202329" stroke="#3f4854" stroke-width="1.5"/>
  <text x="26" y="30" font-size="10" font-weight="600" letter-spacing="1.2" fill="#8896a8">OWNERSHIP · MID-ROLLOUT SNAPSHOT</text>
  <rect x="150" y="44" width="190" height="64" rx="8" fill="#3d3320" stroke="#a5822f" stroke-width="1.5"/>
  <text x="245" y="71" text-anchor="middle" font-size="13" font-weight="700" fill="#e0cfa8">Deployment web</text>
  <text x="245" y="90" text-anchor="middle" font-size="11" fill="#8896a8">replicas: 3 · image: v2</text>
  <rect x="30" y="166" width="200" height="64" rx="8" fill="#2a2f37" stroke="#5b6675" stroke-width="1.5"/>
  <text x="130" y="193" text-anchor="middle" font-size="13" font-weight="700" fill="#8896a8">ReplicaSet web-7d4f</text>
  <text x="130" y="212" text-anchor="middle" font-size="11" fill="#8896a8">v1 · scaling down to 0</text>
  <rect x="260" y="166" width="200" height="64" rx="8" fill="#1e3347" stroke="#4a7fa5" stroke-width="1.5"/>
  <text x="360" y="193" text-anchor="middle" font-size="13" font-weight="700" fill="#c5d5e8">ReplicaSet web-5c9b</text>
  <text x="360" y="212" text-anchor="middle" font-size="11" fill="#8896a8">v2 · scaling up to 3</text>
  <polyline points="200,110 140,164" fill="none" stroke="#4a7fa5" stroke-width="1.5" marker-end="url(#a)"/>
  <polyline points="290,110 350,164" fill="none" stroke="#4a7fa5" stroke-width="1.5" marker-end="url(#a)"/>
  <text x="245" y="142" text-anchor="middle" font-size="11" fill="#8896a8" stroke="#202329" stroke-width="4" paint-order="stroke">owns</text>
  <rect x="40" y="290" width="80" height="60" rx="8" fill="#2a2f37" stroke="#5b6675" stroke-width="1.5"/>
  <text x="48" y="305" font-size="9" font-weight="600" letter-spacing="1" fill="#5b6675">POD</text>
  <text x="80" y="324" text-anchor="middle" font-size="12" font-weight="600" fill="#8896a8">v1</text>
  <text x="80" y="340" text-anchor="middle" font-size="10.5" fill="#8896a8">Ready</text>
  <rect x="140" y="290" width="80" height="60" rx="8" fill="#2a2f37" stroke="#5b6675" stroke-width="1.5"/>
  <text x="148" y="305" font-size="9" font-weight="600" letter-spacing="1" fill="#5b6675">POD</text>
  <text x="180" y="324" text-anchor="middle" font-size="12" font-weight="600" fill="#8896a8">v1</text>
  <text x="180" y="340" text-anchor="middle" font-size="10.5" fill="#8896a8">Ready</text>
  <rect x="270" y="290" width="80" height="60" rx="8" fill="#1f3529" stroke="#4a8f6a" stroke-width="1.5"/>
  <text x="278" y="305" font-size="9" font-weight="600" letter-spacing="1" fill="#4a8f6a">POD</text>
  <text x="310" y="324" text-anchor="middle" font-size="12" font-weight="600" fill="#b8dcc6">v2</text>
  <text x="310" y="340" text-anchor="middle" font-size="10.5" fill="#8896a8">Ready</text>
  <rect x="370" y="290" width="80" height="60" rx="8" fill="#1f3529" stroke="#4a8f6a" stroke-width="1.5"/>
  <text x="378" y="305" font-size="9" font-weight="600" letter-spacing="1" fill="#4a8f6a">POD</text>
  <text x="410" y="324" text-anchor="middle" font-size="12" font-weight="600" fill="#b8dcc6">v2</text>
  <text x="410" y="340" text-anchor="middle" font-size="10.5" fill="#8896a8">Ready</text>
  <polyline points="110,232 82,288" fill="none" stroke="#4a7fa5" stroke-width="1.5" marker-end="url(#a)"/>
  <polyline points="150,232 178,288" fill="none" stroke="#4a7fa5" stroke-width="1.5" marker-end="url(#a)"/>
  <polyline points="340,232 312,288" fill="none" stroke="#4a7fa5" stroke-width="1.5" marker-end="url(#a)"/>
  <polyline points="380,232 408,288" fill="none" stroke="#4a7fa5" stroke-width="1.5" marker-end="url(#a)"/>
  <text x="245" y="376" text-anchor="middle" font-size="11" fill="#8896a8">Each Pod&#x27;s ownerReference points at its ReplicaSet.</text>
  <rect x="500" y="10" width="450" height="380" rx="14" fill="#202329" stroke="#3f4854" stroke-width="1.5"/>
  <text x="516" y="30" font-size="10" font-weight="600" letter-spacing="1.2" fill="#8896a8">ROLLING UPDATE · MAXSURGE 1 · MAXUNAVAILABLE 0</text>
  <rect x="709" y="96" width="56" height="240" rx="10" fill="none" stroke="#a5822f" stroke-width="1.5" stroke-dasharray="5 3"/>
  <text x="737" y="88" text-anchor="middle" font-size="11" fill="#e0cfa8" font-weight="600">snapshot</text>
  <circle cx="551" cy="296" r="13" fill="#2a2f37" stroke="#5b6675" stroke-width="1.5"/>
  <circle cx="551" cy="262" r="13" fill="#2a2f37" stroke="#5b6675" stroke-width="1.5"/>
  <circle cx="551" cy="228" r="13" fill="#2a2f37" stroke="#5b6675" stroke-width="1.5"/>
  <text x="551" y="326" text-anchor="middle" font-size="11" fill="#8896a8">3 · 0</text>
  <text x="551" y="358" text-anchor="middle" font-size="10" fill="#8896a8">step 0</text>
  <circle cx="613" cy="296" r="13" fill="#2a2f37" stroke="#5b6675" stroke-width="1.5"/>
  <circle cx="613" cy="262" r="13" fill="#2a2f37" stroke="#5b6675" stroke-width="1.5"/>
  <circle cx="613" cy="228" r="13" fill="#2a2f37" stroke="#5b6675" stroke-width="1.5"/>
  <circle cx="613" cy="194" r="13" fill="#1f3529" stroke="#4a8f6a" stroke-width="1.5"/>
  <text x="613" y="326" text-anchor="middle" font-size="11" fill="#8896a8">3 · 1</text>
  <text x="613" y="358" text-anchor="middle" font-size="10" fill="#8896a8">step 1</text>
  <circle cx="675" cy="296" r="13" fill="#2a2f37" stroke="#5b6675" stroke-width="1.5"/>
  <circle cx="675" cy="262" r="13" fill="#2a2f37" stroke="#5b6675" stroke-width="1.5"/>
  <circle cx="675" cy="228" r="13" fill="#1f3529" stroke="#4a8f6a" stroke-width="1.5"/>
  <text x="675" y="326" text-anchor="middle" font-size="11" fill="#8896a8">2 · 1</text>
  <text x="675" y="358" text-anchor="middle" font-size="10" fill="#8896a8">step 2</text>
  <circle cx="737" cy="296" r="13" fill="#2a2f37" stroke="#5b6675" stroke-width="1.5"/>
  <circle cx="737" cy="262" r="13" fill="#2a2f37" stroke="#5b6675" stroke-width="1.5"/>
  <circle cx="737" cy="228" r="13" fill="#1f3529" stroke="#4a8f6a" stroke-width="1.5"/>
  <circle cx="737" cy="194" r="13" fill="#1f3529" stroke="#4a8f6a" stroke-width="1.5"/>
  <text x="737" y="326" text-anchor="middle" font-size="11" fill="#8896a8">2 · 2</text>
  <text x="737" y="358" text-anchor="middle" font-size="10" fill="#8896a8">step 3</text>
  <circle cx="799" cy="296" r="13" fill="#2a2f37" stroke="#5b6675" stroke-width="1.5"/>
  <circle cx="799" cy="262" r="13" fill="#1f3529" stroke="#4a8f6a" stroke-width="1.5"/>
  <circle cx="799" cy="228" r="13" fill="#1f3529" stroke="#4a8f6a" stroke-width="1.5"/>
  <text x="799" y="326" text-anchor="middle" font-size="11" fill="#8896a8">1 · 2</text>
  <text x="799" y="358" text-anchor="middle" font-size="10" fill="#8896a8">step 4</text>
  <circle cx="861" cy="296" r="13" fill="#2a2f37" stroke="#5b6675" stroke-width="1.5"/>
  <circle cx="861" cy="262" r="13" fill="#1f3529" stroke="#4a8f6a" stroke-width="1.5"/>
  <circle cx="861" cy="228" r="13" fill="#1f3529" stroke="#4a8f6a" stroke-width="1.5"/>
  <circle cx="861" cy="194" r="13" fill="#1f3529" stroke="#4a8f6a" stroke-width="1.5"/>
  <text x="861" y="326" text-anchor="middle" font-size="11" fill="#8896a8">1 · 3</text>
  <text x="861" y="358" text-anchor="middle" font-size="10" fill="#8896a8">step 5</text>
  <circle cx="923" cy="296" r="13" fill="#1f3529" stroke="#4a8f6a" stroke-width="1.5"/>
  <circle cx="923" cy="262" r="13" fill="#1f3529" stroke="#4a8f6a" stroke-width="1.5"/>
  <circle cx="923" cy="228" r="13" fill="#1f3529" stroke="#4a8f6a" stroke-width="1.5"/>
  <text x="923" y="326" text-anchor="middle" font-size="11" fill="#8896a8">0 · 3</text>
  <text x="923" y="358" text-anchor="middle" font-size="10" fill="#8896a8">step 6</text>
  <circle cx="530" cy="56" r="7" fill="#2a2f37" stroke="#5b6675" stroke-width="1.5"/>
  <text x="544" y="60" text-anchor="start" font-size="11" fill="#8896a8">v1 Pod (old ReplicaSet)</text>
  <circle cx="720" cy="56" r="7" fill="#1f3529" stroke="#4a8f6a" stroke-width="1.5"/>
  <text x="734" y="60" text-anchor="start" font-size="11" fill="#8896a8">v2 Pod (new ReplicaSet)</text>
  <text x="725" y="378" text-anchor="middle" font-size="11" fill="#8896a8">Never fewer than 3 Ready. Never more than 4 in total.</text>
</svg>
